<svg width="100%" height="100%" viewBox="0 0 158 23" fill="none" xmlns="http://www.w3.org/2000/svg">
    <path d="M17.3291 21.2695V21.4453C16.3525 22.0508 15.2734 22.3535 14.0918 22.3535C12.7148 22.3438 11.8066 21.8457 11.3672 20.8594C9.84375 21.9629 8.14453 22.5049 6.26953 22.4854C4.44336 22.4854 2.97852 22.0459 1.875 21.167C0.78125 20.2783 0.234375 19.1016 0.234375 17.6367C0.234375 16.9629 0.380859 16.333 0.673828 15.7471C0.966797 15.1514 1.34277 14.6436 1.80176 14.2236C2.27051 13.8037 2.7832 13.4131 3.33984 13.0518C3.90625 12.6807 4.47266 12.3438 5.03906 12.041C5.60547 11.7383 6.11816 11.4453 6.57715 11.1621C7.0459 10.8789 7.42676 10.5811 7.71973 10.2686C8.0127 9.94629 8.15918 9.61914 8.15918 9.28711C8.15918 9.04297 8.08594 8.82812 7.93945 8.64258C7.80273 8.44727 7.61719 8.31543 7.38281 8.24707C7.37305 8.24707 7.35352 8.24219 7.32422 8.23242C7.25586 8.21289 7.15332 8.19336 7.0166 8.17383H7.00195C6.66992 8.125 6.34277 8.125 6.02051 8.17383C5.47363 8.24219 4.95117 8.44727 4.45312 8.78906L3.86719 8.02734C4.58984 7.30469 5.43945 6.78711 6.41602 6.47461C7.40234 6.15234 8.39844 6.06934 9.4043 6.22559C11.123 6.45996 12.5439 7.24609 13.667 8.58398C14.79 9.92188 15.3809 11.5918 15.4395 13.5938L15.3809 19.1162C15.3809 19.4678 15.3809 19.7266 15.3809 19.8926C15.3906 20.0488 15.415 20.2393 15.4541 20.4639C15.5029 20.6885 15.5713 20.8496 15.6592 20.9473C15.7568 21.0449 15.8936 21.1328 16.0693 21.2109C16.2451 21.2793 16.4697 21.3135 16.7432 21.3135C16.9482 21.3135 17.1436 21.2988 17.3291 21.2695ZM9.00879 6.60645C8.35449 6.51855 7.75879 6.90918 7.22168 7.77832C7.76855 7.84668 8.21289 8.03711 8.55469 8.34961C8.90625 8.65234 9.08203 9.0625 9.08203 9.58008C9.08203 9.9707 8.97461 10.3662 8.75977 10.7666C8.55469 11.167 8.29102 11.5332 7.96875 11.8652C7.65625 12.1875 7.31445 12.5537 6.94336 12.9639C6.58203 13.374 6.24023 13.7744 5.91797 14.165C5.60547 14.5557 5.3418 15.0244 5.12695 15.5713C4.92188 16.1084 4.81934 16.665 4.81934 17.2412C4.81934 18.335 5.15625 19.2139 5.83008 19.8779C6.51367 20.5322 7.42676 20.8594 8.56934 20.8594C9.4873 20.8594 10.3467 20.6299 11.1475 20.1709V20.1416L11.1914 12.9492C11.1914 12.3438 11.1816 11.8359 11.1621 11.4258C11.1523 11.0156 11.1279 10.5762 11.0889 10.1074C11.0596 9.63867 11.0107 9.25781 10.9424 8.96484C10.8838 8.66211 10.8008 8.35938 10.6934 8.05664C10.5859 7.74414 10.4541 7.5 10.2979 7.32422C10.1514 7.13867 9.9707 6.98242 9.75586 6.85547C9.54102 6.72852 9.29199 6.64551 9.00879 6.60645Z" fill="black"/>
    <path d="M39.9316 6.24023C41.543 6.24023 42.7295 6.68945 43.4912 7.58789C44.2529 8.47656 44.6338 9.86328 44.6338 11.748V22.0898H40.415V11.3379C40.415 11.2891 40.415 11.1572 40.415 10.9424C40.4248 10.7275 40.4248 10.5615 40.415 10.4443C40.415 10.3174 40.4102 10.1416 40.4004 9.91699C40.3906 9.68262 40.3613 9.49219 40.3125 9.3457C40.2734 9.19922 40.2148 9.02832 40.1367 8.83301C40.0684 8.6377 39.9756 8.47656 39.8584 8.34961C39.7412 8.22266 39.5996 8.0957 39.4336 7.96875C39.2773 7.8418 39.082 7.74902 38.8477 7.69043C38.6133 7.62207 38.3496 7.58301 38.0566 7.57324C37.4805 7.55371 36.8018 7.68066 36.0205 7.9541C35.2393 8.21777 34.4775 8.68164 33.7354 9.3457C33.9209 10.0684 34.0137 10.8691 34.0137 11.748V22.0898H29.7803V11.3379C29.7803 11.3086 29.7803 11.1572 29.7803 10.8838C29.79 10.6104 29.79 10.415 29.7803 10.2979C29.7803 10.1709 29.7656 9.9707 29.7363 9.69727C29.707 9.41406 29.6631 9.19922 29.6045 9.05273C29.5459 8.89648 29.458 8.71094 29.3408 8.49609C29.2236 8.28125 29.082 8.12012 28.916 8.0127C28.7598 7.89551 28.5498 7.79297 28.2861 7.70508C28.0322 7.61719 27.7441 7.57324 27.4219 7.57324C27.1582 7.57324 26.8604 7.6123 26.5283 7.69043C26.2061 7.76855 25.9521 7.8418 25.7666 7.91016C25.5908 7.97852 25.249 8.12012 24.7412 8.33496C24.2334 8.5498 23.8916 8.69141 23.7158 8.75977L23.7305 22.0898H19.4971L19.5703 6.60645H20.3906L20.4053 6.63574C20.415 6.65527 20.4248 6.66504 20.4346 6.66504C20.7471 7.03613 21.0498 7.33887 21.3428 7.57324C21.6455 7.80762 21.9629 7.99316 22.2949 8.12988C22.6367 8.2666 22.9883 8.32031 23.3496 8.29102C23.7109 8.25195 24.0869 8.125 24.4775 7.91016C26.5479 6.79688 28.1543 6.24023 29.2969 6.24023C31.4844 6.24023 32.9053 7.08496 33.5596 8.77441C34.6729 7.91504 35.8008 7.28027 36.9434 6.87012C38.0859 6.4502 39.082 6.24023 39.9316 6.24023Z" fill="black"/>
    <path d="M64.6289 14.0625C64.6289 15.2637 64.3848 16.3965 63.8965 17.4609C63.418 18.5254 62.7832 19.4189 61.9922 20.1416C61.2012 20.8643 60.2979 21.4355 59.2822 21.8555C58.2666 22.2754 57.2266 22.4854 56.1621 22.4854C53.8281 22.4854 51.9629 21.8506 50.5664 20.5811L48.9258 22.3975H48.0908V0.0146484H48.2812C48.7988 0.0830078 49.2578 0.195312 49.6582 0.351562L50.0537 0.483398H50.0684C50.7715 0.854492 51.3281 1.37695 51.7383 2.05078C52.1484 2.71484 52.3535 3.44238 52.3535 4.2334V8.64258C53.7988 7.07031 55.4297 6.28418 57.2461 6.28418C58.1738 6.28418 59.082 6.47949 59.9707 6.87012C60.8594 7.25098 61.6455 7.77832 62.3291 8.45215C63.0225 9.11621 63.5791 9.94141 63.999 10.9277C64.4189 11.9043 64.6289 12.9492 64.6289 14.0625ZM55.6055 21.9873C56.875 21.9873 57.9395 21.2988 58.7988 19.9219C59.668 18.5449 60.1025 16.6992 60.1025 14.3848C60.1025 13.1641 59.9854 12.0996 59.751 11.1914C59.5166 10.2734 59.1943 9.55566 58.7842 9.03809C58.3838 8.51074 57.9395 8.125 57.4512 7.88086C56.9629 7.62695 56.4355 7.5 55.8691 7.5C54.6289 7.5 53.457 8.13477 52.3535 9.4043V19.043C52.3535 19.8926 52.6855 20.5957 53.3496 21.1523C54.0234 21.709 54.7754 21.9873 55.6055 21.9873Z" fill="black"/>
    <path d="M72.085 16.5088C71.9775 16.8799 71.9775 17.251 72.085 17.6221C72.1143 17.7979 72.1484 17.9346 72.1875 18.0322C72.1875 18.0518 72.1973 18.0811 72.2168 18.1201C72.2363 18.1494 72.2461 18.1738 72.2461 18.1934V18.208C73.0566 19.917 74.3506 20.7715 76.1279 20.7715C76.9482 20.7715 77.7539 20.5615 78.5449 20.1416C79.3457 19.7119 80.0684 19.0576 80.7129 18.1787L81.0498 18.3838C79.2627 21.1084 76.9971 22.4707 74.2529 22.4707C72.1338 22.4707 70.3711 21.7529 68.9648 20.3174C67.5586 18.8818 66.8555 16.9824 66.8555 14.6191C66.8555 12.5195 67.4219 10.7471 68.5547 9.30176C69.6973 7.85645 71.1719 6.92383 72.9785 6.50391C73.623 6.35742 74.2773 6.28418 74.9414 6.28418C74.9609 6.28418 74.9902 6.28906 75.0293 6.29883C75.0781 6.29883 75.1123 6.29883 75.1318 6.29883C76.1572 6.26953 77.1338 6.44531 78.0615 6.82617C78.3154 6.92383 78.5547 7.03125 78.7793 7.14844C80.1465 7.86133 81.0645 8.76465 81.5332 9.8584C82.0117 10.9521 81.9629 12.0459 81.3867 13.1396C81.084 13.7256 80.6592 14.1943 80.1123 14.5459C79.5654 14.8877 78.9697 15.1123 78.3252 15.2197C77.6807 15.3271 77.0459 15.3906 76.4209 15.4102C75.8057 15.4297 75.1758 15.4541 74.5312 15.4834C73.8867 15.5029 73.3936 15.5615 73.0518 15.6592L73.0371 15.6738C72.7539 15.752 72.5195 15.8789 72.334 16.0547C72.3047 16.084 72.2852 16.1084 72.2754 16.1279C72.1973 16.2158 72.1387 16.3184 72.0996 16.4355C72.0898 16.4453 72.085 16.4697 72.085 16.5088ZM71.6895 16.5088C71.6895 16.4209 71.6992 16.3232 71.7188 16.2158C71.748 16.0986 71.8018 15.9326 71.8799 15.7178C71.958 15.4932 72.1045 15.2734 72.3193 15.0586C72.5439 14.8438 72.8223 14.6582 73.1543 14.502C73.1641 14.4922 73.1836 14.4824 73.2129 14.4727C73.2422 14.4629 73.2666 14.4531 73.2861 14.4434C73.2959 14.4434 73.3203 14.4385 73.3594 14.4287C73.3984 14.4092 73.4277 14.3945 73.4473 14.3848C73.5938 14.3262 73.8477 14.2383 74.209 14.1211C74.5703 13.9941 74.8486 13.8965 75.0439 13.8281C75.2393 13.75 75.4932 13.6377 75.8057 13.4912C76.1279 13.335 76.3916 13.1787 76.5967 13.0225C76.8018 12.8662 77.0166 12.6709 77.2412 12.4365C77.4658 12.1924 77.6514 11.9287 77.7979 11.6455C77.9834 11.2939 78.1104 10.8838 78.1787 10.415C78.2471 9.8291 78.2227 9.31152 78.1055 8.8623C77.998 8.40332 77.8467 8.05176 77.6514 7.80762C77.4561 7.56348 77.2119 7.3584 76.9189 7.19238C76.6357 7.0166 76.3965 6.9043 76.2012 6.85547C76.0059 6.79688 75.8057 6.75781 75.6006 6.73828H75.5273C75.5078 6.73828 75.4883 6.73828 75.4688 6.73828C75.4492 6.72852 75.4297 6.72363 75.4102 6.72363H75.3223C74.9023 6.72363 74.5068 6.80176 74.1357 6.95801C73.2666 7.3291 72.5928 8.09082 72.1143 9.24316C71.6357 10.3857 71.3965 11.8311 71.3965 13.5791C71.3965 14.2725 71.4502 15.0049 71.5576 15.7764C71.5771 15.9326 71.5967 16.0596 71.6162 16.1572C71.626 16.2354 71.6504 16.3525 71.6895 16.5088Z" fill="black"/>
    <path d="M94.5703 6.63574H94.7168V10.2979H94.5703C93.9355 9.53613 93.125 9.15527 92.1387 9.15527C91.5527 9.15527 91.0303 9.29199 90.5713 9.56543C90.1123 9.8291 89.7314 10.1904 89.4287 10.6494V10.6641C89.165 11.0645 88.999 11.4893 88.9307 11.9385C88.9209 11.9678 88.9062 12.0117 88.8867 12.0703C88.8672 12.1191 88.8525 12.1582 88.8428 12.1875V22.1045H84.624V6.63574H84.9463C85.9424 6.71387 86.8066 7.12402 87.5391 7.86621C88.291 8.65723 88.6914 9.5752 88.7402 10.6201V11.2939V11.2646C89.1113 9.84863 89.6875 8.74023 90.4688 7.93945C91.2598 7.13867 92.2021 6.7041 93.2959 6.63574C93.4521 6.62598 93.6133 6.62109 93.7793 6.62109C93.9551 6.62109 94.1211 6.62598 94.2773 6.63574C94.4434 6.63574 94.541 6.63574 94.5703 6.63574Z" fill="black"/>
    <path d="M107.432 22.1338L107.49 20.0244C106.006 21.665 104.341 22.4854 102.495 22.4854C101.567 22.4854 100.659 22.2949 99.7705 21.9141C98.8916 21.5234 98.1104 20.9961 97.4268 20.332C96.7432 19.6582 96.1914 18.833 95.7715 17.8564C95.3613 16.8701 95.1562 15.8203 95.1562 14.707C95.1562 13.5059 95.3955 12.373 95.874 11.3086C96.3525 10.2441 96.9824 9.35059 97.7637 8.62793C98.5547 7.90527 99.458 7.33398 100.474 6.91406C101.489 6.49414 102.529 6.28418 103.594 6.28418C105.01 6.23535 106.289 6.66016 107.432 7.55859V0C108.721 0 109.795 0.483398 110.654 1.4502C111.348 2.24121 111.685 3.17871 111.665 4.2627V17.3145C111.665 17.7832 111.675 18.5986 111.694 19.7607C111.714 20.9229 111.724 21.7139 111.724 22.1338H107.432ZM107.432 9.71191C107.432 9.70215 107.427 9.6875 107.417 9.66797C107.407 9.64844 107.402 9.63379 107.402 9.62402C107.119 8.75488 106.694 8.06152 106.128 7.54395C105.562 7.0166 104.902 6.75293 104.15 6.75293C102.881 6.75293 101.812 7.44629 100.942 8.83301C100.073 10.21 99.6387 12.0605 99.6387 14.3848C99.6387 15.6055 99.7607 16.6699 100.005 17.5781C100.249 18.4863 100.581 19.1992 101.001 19.7168C101.421 20.2246 101.88 20.6006 102.378 20.8447C102.886 21.0889 103.428 21.2109 104.004 21.2109C105.215 21.2109 106.357 20.5859 107.432 19.3359V9.71191Z" fill="black"/>
    <path d="M130.386 21.2695V21.4453C129.409 22.0508 128.33 22.3535 127.148 22.3535C125.771 22.3438 124.863 21.8457 124.424 20.8594C122.9 21.9629 121.201 22.5049 119.326 22.4854C117.5 22.4854 116.035 22.0459 114.932 21.167C113.838 20.2783 113.291 19.1016 113.291 17.6367C113.291 16.9629 113.438 16.333 113.73 15.7471C114.023 15.1514 114.399 14.6436 114.858 14.2236C115.327 13.8037 115.84 13.4131 116.396 13.0518C116.963 12.6807 117.529 12.3438 118.096 12.041C118.662 11.7383 119.175 11.4453 119.634 11.1621C120.103 10.8789 120.483 10.5811 120.776 10.2686C121.069 9.94629 121.216 9.61914 121.216 9.28711C121.216 9.04297 121.143 8.82812 120.996 8.64258C120.859 8.44727 120.674 8.31543 120.439 8.24707C120.43 8.24707 120.41 8.24219 120.381 8.23242C120.312 8.21289 120.21 8.19336 120.073 8.17383H120.059C119.727 8.125 119.399 8.125 119.077 8.17383C118.53 8.24219 118.008 8.44727 117.51 8.78906L116.924 8.02734C117.646 7.30469 118.496 6.78711 119.473 6.47461C120.459 6.15234 121.455 6.06934 122.461 6.22559C124.18 6.45996 125.601 7.24609 126.724 8.58398C127.847 9.92188 128.438 11.5918 128.496 13.5938L128.438 19.1162C128.438 19.4678 128.438 19.7266 128.438 19.8926C128.447 20.0488 128.472 20.2393 128.511 20.4639C128.56 20.6885 128.628 20.8496 128.716 20.9473C128.813 21.0449 128.95 21.1328 129.126 21.2109C129.302 21.2793 129.526 21.3135 129.8 21.3135C130.005 21.3135 130.2 21.2988 130.386 21.2695ZM122.065 6.60645C121.411 6.51855 120.815 6.90918 120.278 7.77832C120.825 7.84668 121.27 8.03711 121.611 8.34961C121.963 8.65234 122.139 9.0625 122.139 9.58008C122.139 9.9707 122.031 10.3662 121.816 10.7666C121.611 11.167 121.348 11.5332 121.025 11.8652C120.713 12.1875 120.371 12.5537 120 12.9639C119.639 13.374 119.297 13.7744 118.975 14.165C118.662 14.5557 118.398 15.0244 118.184 15.5713C117.979 16.1084 117.876 16.665 117.876 17.2412C117.876 18.335 118.213 19.2139 118.887 19.8779C119.57 20.5322 120.483 20.8594 121.626 20.8594C122.544 20.8594 123.403 20.6299 124.204 20.1709V20.1416L124.248 12.9492C124.248 12.3438 124.238 11.8359 124.219 11.4258C124.209 11.0156 124.185 10.5762 124.146 10.1074C124.116 9.63867 124.067 9.25781 123.999 8.96484C123.94 8.66211 123.857 8.35938 123.75 8.05664C123.643 7.74414 123.511 7.5 123.354 7.32422C123.208 7.13867 123.027 6.98242 122.812 6.85547C122.598 6.72852 122.349 6.64551 122.065 6.60645Z" fill="black"/>
    <path d="M152.988 6.24023C154.6 6.24023 155.786 6.68945 156.548 7.58789C157.31 8.47656 157.69 9.86328 157.69 11.748V22.0898H153.472V11.3379C153.472 11.2891 153.472 11.1572 153.472 10.9424C153.481 10.7275 153.481 10.5615 153.472 10.4443C153.472 10.3174 153.467 10.1416 153.457 9.91699C153.447 9.68262 153.418 9.49219 153.369 9.3457C153.33 9.19922 153.271 9.02832 153.193 8.83301C153.125 8.6377 153.032 8.47656 152.915 8.34961C152.798 8.22266 152.656 8.0957 152.49 7.96875C152.334 7.8418 152.139 7.74902 151.904 7.69043C151.67 7.62207 151.406 7.58301 151.113 7.57324C150.537 7.55371 149.858 7.68066 149.077 7.9541C148.296 8.21777 147.534 8.68164 146.792 9.3457C146.978 10.0684 147.07 10.8691 147.07 11.748V22.0898H142.837V11.3379C142.837 11.3086 142.837 11.1572 142.837 10.8838C142.847 10.6104 142.847 10.415 142.837 10.2979C142.837 10.1709 142.822 9.9707 142.793 9.69727C142.764 9.41406 142.72 9.19922 142.661 9.05273C142.603 8.89648 142.515 8.71094 142.397 8.49609C142.28 8.28125 142.139 8.12012 141.973 8.0127C141.816 7.89551 141.606 7.79297 141.343 7.70508C141.089 7.61719 140.801 7.57324 140.479 7.57324C140.215 7.57324 139.917 7.6123 139.585 7.69043C139.263 7.76855 139.009 7.8418 138.823 7.91016C138.647 7.97852 138.306 8.12012 137.798 8.33496C137.29 8.5498 136.948 8.69141 136.772 8.75977L136.787 22.0898H132.554L132.627 6.60645H133.447L133.462 6.63574C133.472 6.65527 133.481 6.66504 133.491 6.66504C133.804 7.03613 134.106 7.33887 134.399 7.57324C134.702 7.80762 135.02 7.99316 135.352 8.12988C135.693 8.2666 136.045 8.32031 136.406 8.29102C136.768 8.25195 137.144 8.125 137.534 7.91016C139.604 6.79688 141.211 6.24023 142.354 6.24023C144.541 6.24023 145.962 7.08496 146.616 8.77441C147.729 7.91504 148.857 7.28027 150 6.87012C151.143 6.4502 152.139 6.24023 152.988 6.24023Z" fill="black"/>
</svg>
