<svg width="100%" height="100%" viewBox="0 0 50 50" fill="none" xmlns="http://www.w3.org/2000/svg">
    <circle cx="25" cy="25" r="24.5" fill="white" stroke="black"/>
    <path d="M20.5 21V19.5C20.5 18.3065 20.9741 17.1619 21.818 16.318C22.6619 15.4741 23.8065 15 25 15C26.1935 15 27.3381 15.4741 28.182 16.318C29.0259 17.1619 29.5 18.3065 29.5 19.5V21M16.75 21C16.5511 21 16.3603 21.079 16.2197 21.2197C16.079 21.3603 16 21.5511 16 21.75V31.875C16 33.2925 17.2075 34.5 18.625 34.5H31.375C32.7925 34.5 34 33.3511 34 31.9336V21.75C34 21.5511 33.921 21.3603 33.7803 21.2197C33.6397 21.079 33.4489 21 33.25 21H16.75Z" stroke="black" stroke-width="1.7" stroke-linecap="round" stroke-linejoin="round"/>
</svg>
